# xmcd
#
# Track frame offsets:
#	150
#	16022
#	33161
#	59729
#	80271
#	93754
#	107905
#	119654
#	130486
#	148759
#	159220
#	173458
#	191644
#	203843
#	219237
#
# Disc length: 3075 seconds
#
# Revision: 1
# Processed by: cddbd v1.5.2PL0 Copyright (c) Steve Scherf et al.
# Submitted via: audiograbber 1.83.01
#
DISCID=c60c010f
DTITLE=—борник - Love Songs - The Romantic Essentials CD3
DYEAR=1900
DGENRE=
TTITLE0=Tom Jones - My Way
TTITLE1=Shirley Bassey - Sorry Seems To Be The Hardest Word
TTITLE2=Chic - A Warm Summer Night
TTITLE3=Gladys Night - Midnight Train To Georgia
TTITLE4=Carole King - Growing Away From Me
TTITLE5=Iva Zanicchi - Solo Piu Che Mai (Strangers In The Night)
TTITLE6=The Platters - The Great Pretender
TTITLE7=Phil Phillips - Sea Of Love
TTITLE8=Dalida and Alain Delon - Paroles Paroles
TTITLE9=Fausto Papetti - Over The Rainbow
TTITLE10=Pierre Bachelet - Emmanuelle
TTITLE11=Brook Benton - A Rainy Night In Georgia
TTITLE12=Patsy Cline - Crazy
TTITLE13=Crosby and Nash - Carry Me
TTITLE14=Kenny Rogers - A Poem For A Little Lady
EXTD=
EXTT0=
EXTT1=
EXTT2=
EXTT3=
EXTT4=
EXTT5=
EXTT6=
EXTT7=
EXTT8=
EXTT9=
EXTT10=
EXTT11=
EXTT12=
EXTT13=
EXTT14=
PLAYORDER=
